<svg width="126" height="67" viewBox="0 0 126 67" fill="none" xmlns="http://www.w3.org/2000/svg">
<path d="M27.1765 12.3529L33.5953 23.4706H20.7577L27.1765 12.3529Z" fill="#D71E1E"/>
<path d="M27.1765 19.7647L37.8745 38.2941H16.4785L27.1765 19.7647Z" fill="#D9D9D9"/>
<path d="M27.1765 37.0588L33.5953 48.1765H20.7577L27.1765 37.0588Z" fill="#00EA33"/>
<path d="M50.8303 42.3846H43.0034V41.5819H44.6089V27.1323H43.0034V26.3296H55.2454L57.1118 28.196V32.6914L55.4461 34.3571L57.1118 36.0228V41.5819H58.7173V42.3846H54.1617L52.496 40.7189V34.7585H49.2248V41.5819H50.8303V42.3846ZM49.2248 27.1323V33.9557H52.496V27.1323H49.2248ZM73.5683 28.3967V40.3175L71.5013 42.3846H59.1188V41.5819H60.7243V27.1323H59.1188V26.3296H71.5013L73.5683 28.3967ZM65.3401 27.1323V41.5819H68.9525V27.1323H65.3401ZM75.576 37.5681H76.4791V39.7355L78.3254 41.5819H84.7876L75.7767 30.9655V28.196L77.6431 26.3296H85.5301L86.9349 27.7344V26.1289H87.838V31.1461H86.9349V28.9787L85.0886 27.1323H79.2285L88.2394 37.7487V40.5182L86.373 42.3846H77.8839L76.4791 40.9798V42.5853H75.576V37.5681ZM112.105 41.5819V42.3846H103.797V41.5819H105.944L104.259 36.364H98.6995L96.9936 41.5819H99.0406V42.3846H94.6656V41.5819H96.0303L100.987 26.3296H105.784L110.741 41.5819H112.105ZM103.998 35.5612L101.469 27.8147L98.9604 35.5612H103.998ZM120.528 26.3296V27.1323H118.922V41.5819H120.528V42.3846H112.701V41.5819H114.306V27.1323H112.701V26.3296H120.528Z" fill="white"/>
</svg>
